PathFileType	4	(X/Y/Z)	70_2_68_p0_0-241_filt_butterworth.trc
DataRate	CameraRate	NumFrames	NumMarkers	Units	OrigDataRate	OrigDataStartFrame	OrigNumFrames
60.0	60.0	5	27	m	60.0	120	241
Frame#	Time	RHip			RKnee			RAnkle			RBigToe			RSmallToe			RHeel			LHip			LKnee			LAnkle			LBigToe			LSmallToe			LHeel			Neck			Head			Nose			RShoulder			RElbow			RWrist			RThumb			RIndex			RPinky			LShoulder			LElbow			LWrist			LThumb			LIndex			LPinky			
		X1	Y1	Z1	X2	Y2	Z2	X3	Y3	Z3	X4	Y4	Z4	X5	Y5	Z5	X6	Y6	Z6	X7	Y7	Z7	X8	Y8	Z8	X9	Y9	Z9	X10	Y10	Z10	X11	Y11	Z11	X12	Y12	Z12	X13	Y13	Z13	X14	Y14	Z14	X15	Y15	Z15	X16	Y16	Z16	X17	Y17	Z17	X18	Y18	Z18	X19	Y19	Z19	X20	Y20	Z20	X21	Y21	Z21	X22	Y22	Z22	X23	Y23	Z23	X24	Y24	Z24	X25	Y25	Z25	X26	Y26	Z26	X27	Y27	Z27	
120	2.0	0.37538165175651605	0.4969901940086936	0.0826766158630276	0.3845957329387043	0.6831488706957154	0.48511022294311223	0.3873676885041134	0.8162774568702048	0.9113316890494456	0.32346610812387483	0.6447659358936682	1.0031357203269309	0.3940295764253571	0.6282255752945227	0.9796371971753597	0.37104407932903005	0.9232829275486771	0.9902991934019655	0.14414540832346295	0.5330796363485539	0.07292177181783516	0.1682379190842486	0.6983685868788203	0.4868218230684544	0.16848503796157507	0.8259923360826648	0.8994806449804131	0.17807186087644927	0.6741781187445993	1.0005532370960029	0.11882487729822051	0.7018303006779267	0.9739139348664745	0.19019326860742342	0.8852512790120696	0.9525038568651616	0.2448920933712053	0.39307451183674014	-0.5489092280027171	0.22158440633602533	0.29928770068680877	-0.8005998825803352	0.2200992277095225	0.2505736041190856	-0.630672842756753	0.43429886622413116	0.398920982829848	-0.4584904948405335	0.5183762082422416	0.4822172678728065	-0.17173548341811795	0.5012796471451519	0.4729371860104845	0.10835547970929794	0.43974616377101206	0.48364587191485636	0.2164731346672802	0.455246912089652	0.46557024673439956	0.2288209276430991	0.492310663786484	0.5267319470092368	0.2282216459304767	0.08490215156745665	0.4972578117927561	-0.4688956968590908	0.01777158384320181	0.5726463805942947	-0.1904203754434934	0.023274367608426848	0.5644091115029302	0.09461794552232101	0.059028343943172655	0.5300711926124866	0.20409991049929616	0.03702290165043836	0.5132224203095685	0.2210271878194705	0.012761606096997074	0.6069183879623754	0.2300406443376865
121	2.0166666666666666	0.37343258515517824	0.4929587100917444	0.0824255661556044	0.38459474974714297	0.6831806757568359	0.48552588453433987	0.38682497451529924	0.8155399376121566	0.9098530133696393	0.326293663029072	0.6515839799570438	1.005503204332847	0.3942085196297805	0.6286152784148283	0.9801226364184327	0.37114206075766865	0.9236307707767052	0.9903569969028294	0.14357950227470406	0.5325706494187933	0.07289214705054098	0.16929108664023365	0.6982800739091446	0.4870873270750801	0.16847062668357082	0.8259526740035383	0.8994604747357355	0.17789834405943325	0.6738348993652847	0.9998942573234454	0.11883290740615146	0.7017563338161534	0.973888838419661	0.1900287301151554	0.8850968803024226	0.9516386156234565	0.24489523631872645	0.3931243014011851	-0.548860425478952	0.22158076022479262	0.2992754307247139	-0.8006725086902071	0.21974471197612142	0.25074729637956344	-0.6299336169137868	0.4342808152496791	0.3989055892703354	-0.458553479320425	0.5166944726158875	0.47907884450464566	-0.17167606155816584	0.5017874004126117	0.47113708807909	0.10816162204619005	0.4408496082683838	0.4889176016964552	0.21746796895740528	0.4553680959202262	0.4654988388179113	0.22893269588875512	0.492345964719406	0.5268525024725338	0.22823432369177196	0.08500051928142995	0.4976433828287338	-0.46919000923572746	0.01778311582604056	0.5723387110488011	-0.19213082691257777	0.02368535651471343	0.5627930321710151	0.09449092287466233	0.06007476725391206	0.5300709256293379	0.2045737766813573	0.035607905426155204	0.5082918672649203	0.22096745092247197	0.012311285051581387	0.6053089681100228	0.23011327963768757
122	2.033333333333333	0.3718823420271995	0.48975003352289204	0.08224253122294138	0.384605012325451	0.6832286563126371	0.4861370518088784	0.3861829531299588	0.8148434034152763	0.9092579697946558	0.32818486147330267	0.656159850060625	1.0071044695579325	0.394377008009033	0.6290695911816531	0.9797232306581036	0.3711836004314099	0.9237053829858966	0.9903862366199561	0.14331943809058362	0.5324895596651945	0.07289964090401096	0.17080738127640513	0.6983403051168942	0.4874785477527084	0.16845036014456333	0.8259159364268374	0.8994291050419457	0.17754504774866928	0.6731412941635933	0.9984943963584703	0.11884475786898784	0.7017437912215834	0.9738860652302991	0.19005426920760307	0.8854660043428771	0.9505441438848186	0.24491276012359003	0.3931057728697587	-0.5488556274273942	0.22158240373426774	0.2992810685866976	-0.8007106088044199	0.21867250082448814	0.25080762540640894	-0.62980107728857	0.4342731325795073	0.3988991132966676	-0.45857939520278956	0.5160073974224653	0.47774833192538624	-0.17174249512706516	0.5025427345485626	0.4712095728301344	0.108123392870815	0.44122036375327467	0.49307468661788206	0.21794578962413	0.45542651049647354	0.46564249685137366	0.22892739509324223	0.4923677083553566	0.5271052159891921	0.22832463657070823	0.08503937089201408	0.49787826775653465	-0.4693309276570019	0.017788011433291458	0.5721331082087427	-0.19324705253632296	0.023723629461458312	0.5626211562663775	0.09448015774040733	0.06150783588252172	0.5297852071976549	0.20336817769643487	0.0346474842284772	0.5030590316573995	0.22025612803851474	0.011348164352200802	0.6037360017931699	0.2298578455118482
123	2.05	0.3712018686568356	0.4883240043319171	0.0821751647212126	0.3846657415944729	0.6832442464413924	0.4864932039649035	0.3855851849918111	0.8140385999683397	0.908981250647883	0.32880723992806726	0.6576126108139069	1.007663330001351	0.39443429422417375	0.6295907222809715	0.9796767667536503	0.37115587152092355	0.9234794183147282	0.990376531525571	0.14304608384072945	0.5343727904287153	0.07305913952666346	0.17201330406880525	0.6983603062256287	0.48795500309341167	0.16843042044511178	0.8259077195041025	0.8994097017527415	0.17710674356360886	0.6723020366091846	0.9967466640046507	0.11885308168240442	0.7017962260035031	0.9738926626247081	0.19013656294366724	0.8855232588510384	0.9494476261458008	0.24495669989135638	0.39293423446276265	-0.548883396574806	0.22157559153587283	0.2992746860528879	-0.8007354485852006	0.2171777141123926	0.25083276198145016	-0.6301128184643426	0.43427262074036	0.3988646099638057	-0.45858709288334354	0.5159773176907247	0.47764445110914844	-0.1717919509931822	0.5029214212597558	0.47305979969786693	0.10824314069411456	0.44118052885557746	0.49486445565238824	0.21804113892978402	0.4554271121632699	0.46589160618850967	0.2288978309352518	0.49237752338831786	0.5273633647031887	0.22836639605208092	0.0850509784096927	0.4980274167990257	-0.46929741164149896	0.017781818505364574	0.571943442944165	-0.19398231029921129	0.023657674222467374	0.562854299268527	0.09448527805621222	0.06264655923347609	0.5291481222399739	0.20083989959912646	0.03486503416738645	0.49889129226568885	0.21908251789490638	0.010141688820202395	0.6002972070143893	0.22933248648498428
124	2.066666666666667	0.37129042813106544	0.48850178845878345	0.08218113268963773	0.38474363309136694	0.6832338184197466	0.48623803034863833	0.3852923527384456	0.8132854628446073	0.9084528281411273	0.32872656840534414	0.6572376409080509	1.0076420300622564	0.3943405740309427	0.6300955697033939	0.9803986618627856	0.37108810818759863	0.9230174251584814	0.9903524391926388	0.1426231197965656	0.5395739679923085	0.07346203142667701	0.17255911009164676	0.6981799196945226	0.48839133054475264	0.168418741625904	0.8259340786788686	0.8994094166019384	0.17677672839003988	0.6716944450448964	0.9954407514570836	0.11885919266755578	0.7018681678981937	0.9738987464650519	0.19032734312339994	0.8853867535000687	0.9486473321299504	0.24501845271546147	0.3926335369495204	-0.548921058840881	0.22154321055891585	0.29925353476506816	-0.8007855698994201	0.2158279552582217	0.2509808148813527	-0.6306637024134732	0.4342783297151895	0.39881884433618653	-0.45857185217935453	0.5161262525866099	0.477888076914043	-0.17178857880806878	0.5024460846915295	0.4769485014023125	0.10854893880480689	0.4410768407467493	0.4950800953375365	0.21796741788617943	0.4554050511437914	0.4660604170289915	0.22888850351525417	0.4923694522045094	0.5275107869771137	0.22809899646102275	0.08505812139705712	0.4981541583575375	-0.4691893094234731	0.017737964182852204	0.5717318285223076	-0.19449513177152797	0.02360697458164948	0.5630656046705514	0.09448007770142113	0.06307228495887209	0.5283783268024564	0.1981636866971635	0.036226650958360654	0.4969032504682409	0.21778361579345154	0.009485888656590771	0.5958440778272232	0.22876615360924055
